<?xml version="1.0" encoding="UTF-8"?>
<!DOCTYPE svg PUBLIC "-//W3C//DTD SVG 1.1//EN" "http://www.w3.org/Graphics/SVG/1.1/DTD/svg11.dtd">
<!-- Creator: CorelDRAW (Versão de avaliação) -->
<svg xmlns="http://www.w3.org/2000/svg" xml:space="preserve" width="93.1332mm" height="46.5666mm" version="1.1" style="shape-rendering:geometricPrecision; text-rendering:geometricPrecision; image-rendering:optimizeQuality; fill-rule:evenodd; clip-rule:evenodd"
viewBox="0 0 9313.32 4656.66"
 xmlns:xlink="http://www.w3.org/1999/xlink"
 xmlns:xodm="http://www.corel.com/coreldraw/odm/2003">
 <defs>
  <style type="text/css">
   <![CDATA[
    .fil0 {fill:#F4F2EF}
   ]]>
  </style>
 </defs>
 <g id="Camada_x0020_1">
  <metadata id="CorelCorpID_0Corel-Layer"/>
  <g id="_573911392">
   <g>
    <path class="fil0" d="M259.09 3522.05c52.75,8.76 193.36,77.9 248.99,104.12l237.34 129.98 -97.49 158.43c-182.41,-104.21 -289.4,-208.24 -388.84,-392.53zm2002.74 773.26c52.66,-159.22 368.46,-509.81 490.01,-640.53 124.41,-133.8 479.21,-412.85 646.84,-481.14 -63.81,524.35 -383.01,660.52 -779.86,906.58 -104.54,64.82 -250.39,164.98 -356.99,215.09zm-2121.74 -1227.26c309.11,44.51 465.7,75.25 750.18,192.83 32.17,13.3 191.57,80.51 212.1,108.06 -35.21,38.18 -226.87,243.32 -254.27,257.18 -127.99,-65.64 -138.91,-93.87 -311.02,-163.27 -127.39,-51.35 -224.95,-85.81 -356.8,-127.53 -26.23,-58.73 -51.99,-204.19 -40.19,-267.27zm1263.65 1305.03c8.6,-83.25 359.38,-530.51 461.72,-622.66 25.57,-23.02 87.85,-85.31 109.6,-110.89 37.18,-43.74 186.58,-167.76 236.47,-203.23 168.55,-119.83 355.02,-249.5 544.53,-335.92 164.72,-75.11 475.02,-210.35 649.42,-230.19l-3.21 130.9c-20.71,16.19 -377.74,185.43 -568.69,337.9 -84.53,67.49 -166.76,139.1 -252.09,205.11 -80.85,62.54 -156.2,156.47 -228.46,228.49 -154.55,154.04 -269.61,343.23 -384.9,528.55 -29.69,47.73 -52.79,100 -77.72,151 -37.94,77.63 -82.33,67.08 -168.48,59.47 -84.17,-7.44 -257.12,-83.82 -318.19,-138.53zm-1269.67 -1668.78c295.29,15.9 500.45,31.69 791.88,89.48 157.05,31.14 525.92,142.66 639.59,226.13 -11.53,9.94 -317.8,215.09 -319.15,215.6 -321.12,-168.41 -743.46,-313.11 -1113.06,-320.55l0.74 -210.66zm1069.45 1533.59c-26.94,-3.45 -324.59,-180.47 -361.08,-208.4 24.1,-106.56 348.88,-453.7 442.95,-538.3 385.37,-346.64 768.76,-556.93 1272.57,-699.49 146.66,-41.5 728.02,-178.67 845.27,-142.87l1.01 98.55c-471.72,87.72 -925.38,252.31 -1312.79,534.85 -285.61,208.29 -494.13,394.12 -701.16,678.19l-186.77 277.47zm-409.17 -1647.09c-1.02,-69.99 -15.27,-349.9 12.55,-390.64 29.5,-16.4 239.6,-12.21 284.31,-4.02 18.28,84.14 4.14,353.88 5.06,458.45 -62.31,-9.04 -257.81,-40.09 -301.92,-63.79zm1829.71 -449.6c33.11,-43.65 133.64,-158.72 174.26,-184.65 -37.27,55.13 -118.78,156.4 -174.26,184.65zm-378.24 -692.89c-69.9,-29.19 -172.76,-149.82 -213.69,-212.24 46.13,27.39 183.2,164.5 213.69,212.24zm359.35 -92.56c33.2,-49.92 184.66,-200.64 235.58,-230.8 -36.47,66.96 -164.76,201.13 -235.58,230.8zm-193.57 -527.99c-10.46,-128.28 -4.78,-226.36 7.64,-348.69 6.66,57.48 8.8,115.83 9.58,173.75l-3.57 135.87c-5.21,43.98 3.42,13.4 -13.65,39.07zm-661.51 -236.62c-138.41,-42.93 -207.73,-11.49 -332.38,45.7 -193.32,88.68 -393.05,173.15 -588.42,258.07 -160.27,69.68 -444.7,178.72 -576.7,277.67 -234.09,175.47 -248.6,320.23 -248.8,597.48 -0.21,284.86 -0.12,569.72 -0.18,854.6 -0.06,246.45 -24.72,559.88 55.89,791.14 164.11,470.94 476.9,589.77 870.55,829.39 176.76,107.59 356.42,214.83 534.32,320.7 226.02,134.5 430.14,111.19 648.71,-18.44 178.49,-105.85 354.99,-214.67 532.4,-322.25 98.18,-59.55 450.9,-271.89 517.25,-328.71 437.29,-374.37 377.17,-799.38 375.57,-1322.61 -0.86,-284.94 -1.61,-570.3 -0.41,-855.22 0.58,-137.72 -4.85,-224.75 -71.39,-348.16 -41.33,-76.66 -120.29,-206.45 -219.65,-166.85 -63.14,155.45 36.87,60.11 129.62,291.09 37.16,92.57 29.73,216.68 29.5,317.48 -0.54,233.34 -3.02,469.02 -0.48,702.11 -164.36,9.09 -320.54,15.2 -483.93,40.56 -152.54,23.67 -339.79,73.58 -438.6,88.03 4.19,-108.54 -21.05,-264.14 68.58,-339.65 68.73,-57.9 548.85,-20.32 552.81,-638.27 -128.82,-42.39 -367.35,68.61 -453.29,162.81 -151.07,165.56 -118.59,330.51 -172.9,438.57 -19.81,-103.27 -3.39,-413.26 -3.95,-538.82 -1.05,-239.26 160.55,-242.09 274.45,-268.4 282.46,-65.28 462.07,-359.9 420.48,-653.24 -159.17,-29.01 -369.12,57.43 -484.7,158.03 -174.25,151.67 -143.9,346.88 -210.45,435.23 0.94,-82.39 -18.91,-402.46 15.01,-452.69 74.51,-110.29 138.46,-148.75 173.83,-291.33 33.92,-136.73 15.04,-272.63 -45.28,-390.4 -33.35,-65.15 -139.26,-234.01 -197.35,-264.44 -47.29,88.77 -157.81,181.42 -206.45,288.78 -88.85,196.13 -64.67,410.46 73.83,576.47 53.78,64.47 77.64,78.48 77.29,167.92 -0.64,160.21 8.56,342.88 -1.09,500.07 -28.29,-42.82 -42.89,-209.64 -63.28,-275.28 -89.47,-288.12 -360.77,-377.81 -648.24,-359.88 10.53,308.36 141.48,544.66 436.27,631.27 190.55,56 271.2,7.2 271.57,265.63 0.09,68.09 6.25,494.36 -3.29,513.47 -70.26,-129.07 -20.04,-245.66 -151.03,-396.47 -84.15,-96.89 -259.53,-169.86 -394.21,-137.22 -16.82,182.71 102.48,384.61 272.25,444.92 115.59,41.06 168.58,6.97 232.75,131.84 68.4,133.11 35.14,124.33 43.16,328.71 -134.52,30.46 -367.37,117.46 -485.77,180.79 -143.45,76.71 -94.27,52.54 -223.89,-11.99l-233.4 -97.75c-12.36,-117.62 -2.09,-290.93 -2.26,-414.68 -0.27,-199.69 19.31,-168.08 -73.18,-338.52 -42.6,-78.5 -83.81,-208.34 -157.56,-257.52 -75.39,-50.29 -163.56,-121.18 -240.18,-164.49 -40.48,9.73 -185.5,112.51 -229.38,142.59 -78.96,54.1 -75.51,86.55 -146.01,217.2 -42.66,79.06 -101.94,164.85 -101.8,256.46 0.19,120.19 -4.38,246.5 0.45,364.44l-332.4 -7.9c-2.99,-161.57 -7.49,-802.64 1.65,-931.89 20.48,-289.46 245.56,-362.68 463.52,-470.28 205.91,-101.64 437.86,-185.08 647.8,-283.92 86.39,-40.66 236.39,-115.41 321.53,-143.23 143.26,-46.81 279.16,93.39 378.75,65.71 92.34,-113.72 -119.85,-170.34 -197.51,-194.43z"/>
    <path class="fil0" d="M253.5 2078.3c20.61,20.93 91.92,58.45 121.61,38.09 18.88,-12.95 160.14,-309.92 175.72,-341.61 23.29,-47.34 32.24,-72.63 76.35,-101.25l306.8 -202.87c40.71,14.06 344.58,224.84 364.05,258.18 40.94,70.14 177.3,362.46 212.59,396.39 43.89,5.31 87.17,-17.88 116.62,-49.71 -1.3,-48.69 -208.92,-455.31 -250.21,-485.56 -55.09,-40.39 -403.08,-286.3 -441.92,-285.34 -28.1,0.69 -411.86,254.23 -447.4,289.05 -15.38,15.09 -241.52,442.52 -234.21,484.63z"/>
   </g>
   <g>
    <path class="fil0" d="M5342.9 2816.37c270.53,-77.14 345.68,386.71 109.25,469.62 -270.86,95 -361.22,-397.77 -109.25,-469.62zm243.96 -74.18c-29.84,-15.41 -52.05,-50.84 -84.75,-69.73 -104.24,-60.2 -244.39,-55.53 -346.8,3.44 -131.42,75.7 -188.26,238.32 -187.33,387.59 1.73,280.09 215.56,459.91 447.92,406.04 95.06,-22.03 106.21,-60.43 168.36,-116.16 23.54,117.65 1.5,241.87 -117.66,285.8 -177.01,65.25 -251.16,-88.94 -266.98,-96.86 -49.78,-9.4 -139.89,-6.76 -189.09,4.6 -56.45,260.27 505.61,403.38 712.78,136.99 107.63,-138.38 80.64,-315.68 81.05,-485.2 0.21,-84.67 17.77,-502.46 -14.12,-543.62 -44.3,-20.87 -158.96,-19 -200.15,10.96l-3.23 76.15z"/>
    <path class="fil0" d="M4394.24 2611.72l142.72 451.02 -291.36 0.77c9.99,-57.88 49.05,-170.33 69.36,-228.94 21.19,-61.14 40.64,-182.09 79.28,-222.85zm-514.79 870.73c44.36,15.56 211.1,23.53 232.72,-21.72 16.69,-34.94 57.16,-159.91 66.05,-198.2l423.48 4.45c24.09,67.81 43.59,157.44 79.82,217.55 47.65,8.27 189.38,12.32 233.23,0.21 3.08,-50.1 -240.78,-709.67 -289.74,-849.78 -17.36,-49.67 -76.46,-254.3 -107.78,-275.13 -29.32,-13.91 -218.87,-11.5 -256.05,-1.88 -18.69,9.94 -391.18,1075.79 -381.73,1124.5z"/>
    <path class="fil0" d="M8655.76 3063.69c14.13,-67.77 117.63,-409.32 145.03,-452.58 19.68,33.88 141.63,412.81 144.8,452.41l-289.83 0.17zm-373.41 415.3c29.09,20.81 89.2,10.74 129.16,11 114.4,0.75 107.29,16.03 176.2,-227.31l426.42 1.09c10.35,42.77 58.15,192.9 83.02,221 46.8,7.47 175.66,15.07 216.04,-1.96 7.67,-53.66 -348.46,-1083.03 -382.18,-1129.19l-259.96 3.88c-16.36,5.71 -395.97,1092.52 -388.7,1121.49z"/>
    <path class="fil0" d="M8332.66 2502.66c35.24,-99.71 60.62,-138.82 19.17,-147.81 -25.15,-5.46 -187.08,-2.66 -216.59,1.26 -37.04,45.29 -119.68,361.38 -146.87,444.46 -24.35,74.44 -116.36,412.11 -143.87,449.67 -26.8,-32.13 -133.06,-415.37 -143.3,-450.33 -17.67,-60.43 -112.78,-419.1 -145.81,-439.44 -27.54,-15.11 -206.21,-12.19 -239.33,4.65 -7.86,44.54 162.45,481.93 188.71,564.15l198.12 555.23c72.83,10.53 212.51,9.1 286.37,0.77l343.4 -982.61z"/>
    <path class="fil0" d="M7146.42 3122.54c-55.54,340.6 -459.32,241.55 -402.23,-109.52 54.34,-334.1 457.01,-226.46 402.23,109.52zm208.88 42.32c111.74,-589.74 -710.74,-746.73 -825.29,-189.36 -121.47,591.17 720.05,744.8 825.29,189.36z"/>
    <path class="fil0" d="M6474.87 2838.47c13.98,-37.08 11.16,-114.63 9.93,-156.79 -1.94,-66.45 -46.87,-56.84 -108.76,-45.07 -99.46,18.89 -119.79,79.01 -179.76,130.56 -4.14,-34.15 4.72,-77.88 -11.98,-107.86 -32.73,-23.97 -156.76,-20.7 -194.33,-3.79 -27.93,21.83 -14.8,354.08 -14.81,407.79 -0.03,99.56 -11.46,325.95 3.67,410.64 32.19,25.74 164.16,21.26 202.39,7.4 33.76,-62.72 2.03,-361.08 13.91,-459.45 7.33,-60.58 43.74,-114.2 94.05,-143.43 79.23,-46.01 104.98,-27.26 185.69,-40z"/>
   </g>
  </g>
 </g>
</svg>
