<?xml version="1.0" encoding="UTF-8"?>
<!DOCTYPE svg PUBLIC "-//W3C//DTD SVG 1.1//EN" "http://www.w3.org/Graphics/SVG/1.1/DTD/svg11.dtd">
<!-- Creator: CorelDRAW (Versão de avaliação) -->
<svg xmlns="http://www.w3.org/2000/svg" xml:space="preserve" width="35.394mm" height="46.5666mm" version="1.1" style="shape-rendering:geometricPrecision; text-rendering:geometricPrecision; image-rendering:optimizeQuality; fill-rule:evenodd; clip-rule:evenodd"
viewBox="0 0 3539.4 4656.66"
 xmlns:xlink="http://www.w3.org/1999/xlink"
 xmlns:xodm="http://www.corel.com/coreldraw/odm/2003">
 <defs>
  <style type="text/css">
   <![CDATA[
    .fil0 {fill:#F4F2EF}
   ]]>
  </style>
 </defs>
 <g id="Camada_x0020_1">
  <metadata id="CorelCorpID_0Corel-Layer"/>
  <g id="_632802072">
   <path class="fil0" d="M249.3 3522.21c52.76,8.77 193.39,77.92 249.03,104.14l237.37 130 -97.5 158.45c-182.44,-104.23 -289.44,-208.27 -388.9,-392.59zm2003.02 773.38c52.68,-159.25 368.52,-509.89 490.09,-640.63 124.42,-133.82 479.28,-412.9 646.93,-481.21 -63.82,524.43 -383.06,660.62 -779.97,906.72 -104.56,64.83 -250.43,164.99 -357.05,215.12zm-2122.03 -1227.43c309.15,44.51 465.76,75.25 750.28,192.85 32.18,13.3 191.6,80.52 212.13,108.07 -35.22,38.19 -226.9,243.35 -254.31,257.22 -128,-65.65 -138.92,-93.88 -311.06,-163.29 -127.41,-51.36 -224.98,-85.82 -356.85,-127.55 -26.23,-58.74 -52,-204.21 -40.19,-267.3zm1263.83 1305.2c8.59,-83.26 359.42,-530.58 461.78,-622.74 25.57,-23.02 87.86,-85.32 109.62,-110.9 37.18,-43.75 186.61,-167.79 236.5,-203.27 168.58,-119.84 355.07,-249.53 544.61,-335.96 164.74,-75.12 475.09,-210.38 649.51,-230.22l-3.22 130.92c-20.7,16.18 -377.79,185.45 -568.77,337.94 -84.53,67.5 -166.77,139.12 -252.12,205.14 -80.86,62.55 -156.22,156.49 -228.49,228.52 -154.58,154.07 -269.65,343.28 -384.95,528.63 -29.7,47.73 -52.81,100.01 -77.74,151.02 -37.95,77.63 -82.34,67.09 -168.5,59.47 -84.18,-7.44 -257.15,-83.82 -318.23,-138.55zm-1269.85 -1669.01c295.32,15.91 500.52,31.7 791.99,89.49 157.07,31.15 525.99,142.69 639.67,226.16 -11.52,9.95 -317.83,215.12 -319.18,215.63 -321.17,-168.42 -743.57,-313.15 -1113.22,-320.59l0.74 -210.69zm1069.6 1533.81c-26.95,-3.45 -324.64,-180.5 -361.14,-208.44 24.11,-106.56 348.93,-453.75 443.01,-538.37 385.43,-346.69 768.88,-557 1272.76,-699.59 146.68,-41.5 728.12,-178.69 845.39,-142.88l1.01 98.56c-471.79,87.73 -925.51,252.35 -1312.98,534.92 -285.65,208.32 -494.2,394.17 -701.26,678.28l-186.79 277.52zm-409.23 -1647.32c-1.02,-70 -15.28,-349.95 12.54,-390.7 29.52,-16.4 239.64,-12.21 284.36,-4.02 18.28,84.16 4.14,353.93 5.06,458.52 -62.32,-9.05 -257.85,-40.1 -301.96,-63.8zm1829.97 -449.67c33.11,-43.66 133.66,-158.74 174.29,-184.67 -37.28,55.14 -118.81,156.42 -174.29,184.67zm-378.3 -692.98c-69.91,-29.19 -172.78,-149.84 -213.71,-212.28 46.13,27.41 183.22,164.53 213.71,212.28zm359.41 -92.57c33.2,-49.94 184.68,-200.67 235.61,-230.84 -36.48,66.97 -164.79,201.16 -235.61,230.84zm-193.6 -528.07c-10.46,-128.3 -4.78,-226.39 7.64,-348.74 6.66,57.49 8.8,115.85 9.58,173.78l-3.57 135.89c-5.22,43.98 3.42,13.4 -13.65,39.07zm-661.6 -236.65c-138.44,-42.94 -207.77,-11.5 -332.44,45.7 -193.34,88.7 -393.1,173.18 -588.49,258.11 -160.3,69.69 -444.77,178.75 -576.79,277.7 -234.13,175.5 -248.63,320.28 -248.83,597.58 -0.21,284.9 -0.12,569.8 -0.18,854.71 -0.06,246.49 -24.72,559.96 55.89,791.26 164.14,471 476.97,589.84 870.68,829.49 176.78,107.61 356.46,214.87 534.4,320.75 226.05,134.52 430.19,111.21 648.79,-18.44 178.53,-105.87 355.05,-214.7 532.48,-322.3 98.19,-59.55 450.96,-271.92 517.33,-328.76 437.35,-374.42 377.22,-799.48 375.62,-1322.79 -0.86,-284.98 -1.61,-570.38 -0.41,-855.34 0.58,-137.73 -4.86,-224.78 -71.41,-348.21 -41.32,-76.66 -120.3,-206.47 -219.68,-166.86 -63.15,155.47 36.88,60.12 129.64,291.12 37.17,92.58 29.74,216.71 29.51,317.53 -0.54,233.37 -3.02,469.08 -0.48,702.2 -164.38,9.1 -320.59,15.21 -484,40.57 -152.57,23.67 -339.84,73.6 -438.67,88.04 4.2,-108.56 -21.05,-264.18 68.59,-339.69 68.75,-57.91 548.94,-20.33 552.9,-638.36 -128.84,-42.4 -367.41,68.62 -453.36,162.83 -151.09,165.59 -118.6,330.55 -172.92,438.63 -19.82,-103.29 -3.39,-413.32 -3.95,-538.89 -1.05,-239.29 160.57,-242.12 274.49,-268.45 282.49,-65.28 462.13,-359.94 420.54,-653.32 -159.19,-29.02 -369.18,57.43 -484.77,158.05 -174.27,151.69 -143.92,346.93 -210.48,435.29 0.94,-82.4 -18.92,-402.52 15.01,-452.75 74.52,-110.31 138.48,-148.78 173.86,-291.37 33.92,-136.75 15.03,-272.68 -45.29,-390.46 -33.36,-65.16 -139.28,-234.04 -197.39,-264.48 -47.29,88.79 -157.83,181.45 -206.47,288.82 -88.86,196.16 -64.68,410.52 73.84,576.55 53.79,64.48 77.65,78.5 77.3,167.95 -0.64,160.23 8.56,342.93 -1.09,500.14 -28.29,-42.83 -42.89,-209.67 -63.29,-275.32 -89.48,-288.16 -360.82,-377.86 -648.33,-359.93 10.53,308.4 141.5,544.74 436.33,631.36 190.58,56 271.24,7.2 271.61,265.67 0.09,68.1 6.25,494.42 -3.29,513.54 -70.27,-129.09 -20.04,-245.7 -151.05,-396.53 -84.16,-96.9 -259.57,-169.89 -394.26,-137.24 -16.83,182.74 102.48,384.66 272.28,444.98 115.6,41.07 168.61,6.97 232.79,131.86 68.41,133.13 35.14,124.35 43.16,328.76 -134.53,30.46 -367.42,117.47 -485.84,180.81 -143.47,76.73 -94.28,52.56 -223.92,-11.98l-233.44 -97.77c-12.35,-117.64 -2.09,-290.97 -2.26,-414.74 -0.27,-199.72 19.32,-168.1 -73.18,-338.57 -42.61,-78.51 -83.83,-208.37 -157.58,-257.55 -75.41,-50.3 -163.59,-121.2 -240.22,-164.51 -40.49,9.72 -185.53,112.52 -229.42,142.6 -78.96,54.12 -75.51,86.57 -146.02,217.23 -42.67,79.08 -101.96,164.88 -101.82,256.5 0.19,120.2 -4.38,246.54 0.45,364.49l-332.44 -7.9c-2.99,-161.59 -7.5,-802.75 1.65,-932.02 20.48,-289.5 245.59,-362.73 463.58,-470.35 205.94,-101.64 437.92,-185.1 647.9,-283.96 86.4,-40.66 236.42,-115.42 321.56,-143.24 143.29,-46.82 279.21,93.4 378.81,65.72 92.35,-113.74 -119.87,-170.37 -197.53,-194.46z"/>
   <path class="fil0" d="M243.71 2078.27c20.61,20.93 91.93,58.45 121.63,38.09 18.89,-12.95 160.16,-309.97 175.75,-341.66 23.29,-47.34 32.24,-72.64 76.35,-101.26l306.84 -202.9c40.72,14.07 344.64,224.87 364.11,258.22 40.95,70.15 177.32,362.5 212.62,396.44 43.9,5.31 87.18,-17.88 116.64,-49.72 -1.3,-48.69 -208.95,-455.37 -250.25,-485.63 -55.1,-40.38 -403.14,-286.34 -441.99,-285.38 -28.1,0.69 -411.92,254.27 -447.45,289.1 -15.39,15.09 -241.56,442.58 -234.25,484.7z"/>
  </g>
 </g>
</svg>
