<?xml version="1.0" encoding="UTF-8"?>
<!DOCTYPE svg PUBLIC "-//W3C//DTD SVG 1.1//EN" "http://www.w3.org/Graphics/SVG/1.1/DTD/svg11.dtd">
<!-- Creator: CorelDRAW (Versão de avaliação) -->
<svg xmlns="http://www.w3.org/2000/svg" xml:space="preserve" width="54.1866mm" height="63.5mm" version="1.1" style="shape-rendering:geometricPrecision; text-rendering:geometricPrecision; image-rendering:optimizeQuality; fill-rule:evenodd; clip-rule:evenodd"
viewBox="0 0 5418.66 6350"
 xmlns:xlink="http://www.w3.org/1999/xlink"
 xmlns:xodm="http://www.corel.com/coreldraw/odm/2003">
 <defs>
  <style type="text/css">
   <![CDATA[
    .fil0 {fill:#F4F2EF}
   ]]>
  </style>
 </defs>
 <g id="Camada_x0020_1">
  <metadata id="CorelCorpID_0Corel-Layer"/>
  <g id="_395505808">
   <path class="fil0" d="M1225.82 3487.06c51.85,8.62 190.06,76.58 244.75,102.35l233.29 127.76 -95.83 155.73c-179.3,-102.44 -284.46,-204.69 -382.21,-385.84zm1968.59 760.08c51.77,-156.51 362.18,-501.12 481.66,-629.61 122.28,-131.52 471.04,-405.8 635.8,-472.94 -62.72,515.41 -376.47,649.27 -766.55,891.13 -102.76,63.71 -246.13,162.16 -350.91,211.42zm-2085.56 -1206.33c303.84,43.75 457.76,73.96 737.39,189.53 31.62,13.08 188.3,79.14 208.48,106.22 -34.61,37.53 -223,239.17 -249.94,252.8 -125.79,-64.52 -136.53,-92.27 -305.71,-160.48 -125.22,-50.48 -221.11,-84.35 -350.71,-125.36 -25.78,-57.73 -51.11,-200.7 -39.51,-262.71zm1242.1 1282.77c8.45,-81.83 353.25,-521.46 453.85,-612.04 25.13,-22.63 86.35,-83.85 107.73,-109 36.55,-42.99 183.4,-164.9 232.44,-199.77 165.68,-117.78 348.96,-245.24 535.24,-330.19 161.91,-73.82 466.93,-206.75 638.35,-226.25l-3.16 128.66c-20.35,15.91 -371.3,182.27 -558.99,332.14 -83.08,66.33 -163.91,136.72 -247.79,201.6 -79.47,61.48 -153.53,153.8 -224.57,224.6 -151.91,151.42 -265.01,337.37 -378.33,519.54 -29.19,46.91 -51.89,98.29 -76.4,148.42 -37.29,76.3 -80.93,65.94 -165.61,58.45 -82.72,-7.31 -252.72,-82.38 -312.76,-136.16zm-1248.01 -1640.32c290.25,15.63 491.91,31.16 778.37,87.95 154.37,30.62 516.95,140.24 628.68,222.27 -11.33,9.78 -312.37,211.43 -313.7,211.93 -315.65,-165.53 -730.78,-307.77 -1094.08,-315.08l0.73 -207.07zm1051.21 1507.44c-26.49,-3.39 -319.06,-177.39 -354.93,-204.86 23.69,-104.73 342.93,-445.95 435.4,-529.11 378.8,-340.73 755.65,-547.43 1250.87,-687.56 144.16,-40.79 715.6,-175.62 830.86,-140.43l0.99 96.87c-463.68,86.22 -909.6,248.01 -1290.41,525.72 -280.74,204.74 -485.7,387.4 -689.2,666.62l-183.58 272.75zm-402.19 -1619c-1.01,-68.8 -15.02,-343.94 12.33,-383.98 29,-16.12 235.51,-12 279.47,-3.95 17.96,82.71 4.06,347.84 4.97,450.63 -61.25,-8.89 -253.42,-39.41 -296.77,-62.7zm1798.51 -441.94c32.54,-42.9 131.36,-156.01 171.28,-181.5 -36.63,54.2 -116.76,153.74 -171.28,181.5zm-371.8 -681.07c-68.71,-28.68 -169.81,-147.26 -210.04,-208.62 45.34,26.93 180.07,161.7 210.04,208.62zm353.23 -90.98c32.62,-49.07 181.5,-197.21 231.56,-226.86 -35.85,65.81 -161.95,197.69 -231.56,226.86zm-190.27 -518.98c-10.28,-126.09 -4.7,-222.51 7.5,-342.74 6.56,56.49 8.66,113.85 9.42,170.78l-3.5 133.55c-5.13,43.23 3.36,13.18 -13.42,38.41zm-650.23 -232.59c-136.06,-42.19 -204.19,-11.29 -326.72,44.92 -190.01,87.17 -386.35,170.2 -578.38,253.67 -157.54,68.49 -437.12,175.68 -566.87,272.93 -230.1,172.48 -244.35,314.77 -244.55,587.3 -0.21,280 -0.12,560 -0.18,840.01 -0.06,242.26 -24.29,550.34 54.93,777.66 161.32,462.9 468.77,579.7 855.71,815.24 173.74,105.75 350.34,211.17 525.21,315.23 222.16,132.21 422.8,109.29 637.64,-18.13 175.46,-104.04 348.95,-211.01 523.33,-316.75 96.5,-58.53 443.2,-267.25 508.43,-323.11 429.83,-367.98 370.74,-785.74 369.17,-1300.05 -0.85,-280.08 -1.59,-560.57 -0.41,-840.63 0.57,-135.37 -4.77,-220.91 -70.18,-342.22 -40.61,-75.35 -118.23,-202.93 -215.9,-164 -62.06,152.8 36.24,59.09 127.41,286.12 36.53,90.99 29.23,212.99 29,312.07 -0.53,229.36 -2.96,461.02 -0.47,690.13 -161.56,8.94 -315.08,14.94 -475.68,39.87 -149.94,23.26 -333.99,72.33 -431.12,86.53 4.12,-106.69 -20.7,-259.64 67.41,-333.86 67.56,-56.91 539.49,-19.97 543.38,-627.38 -126.62,-41.67 -361.08,67.44 -445.56,160.03 -148.49,162.74 -116.56,324.87 -169.95,431.09 -19.47,-101.51 -3.33,-406.21 -3.88,-529.63 -1.03,-235.18 157.81,-237.96 269.77,-263.83 277.64,-64.16 454.19,-353.75 413.31,-642.09 -156.45,-28.52 -362.83,56.45 -476.43,155.34 -171.28,149.08 -141.45,340.96 -206.87,427.8 0.93,-80.98 -18.59,-395.6 14.76,-444.97 73.24,-108.41 136.1,-146.21 170.87,-286.36 33.33,-134.39 14.77,-267.98 -44.51,-383.74 -32.79,-64.04 -136.89,-230.02 -193.99,-259.93 -46.49,87.26 -155.12,178.32 -202.93,283.85 -87.33,192.79 -63.57,403.47 72.57,566.64 52.87,63.37 76.32,77.14 75.97,165.06 -0.62,157.47 8.41,337.03 -1.07,491.54 -27.8,-42.09 -42.16,-206.07 -62.2,-270.59 -87.94,-283.2 -354.62,-371.36 -637.19,-353.74 10.36,303.1 139.08,535.38 428.83,620.51 187.31,55.04 266.58,7.07 266.95,261.1 0.09,66.93 6.14,485.92 -3.23,504.71 -69.07,-126.87 -19.7,-241.47 -148.46,-389.71 -82.72,-95.23 -255.11,-166.97 -387.49,-134.88 -16.53,179.59 100.73,378.05 267.61,437.33 113.61,40.36 165.7,6.85 228.78,129.59 67.23,130.84 34.53,122.22 42.42,323.11 -132.22,29.93 -361.1,115.45 -477.49,177.7 -141,75.41 -92.66,51.65 -220.07,-11.78l-229.42 -96.09c-12.15,-115.61 -2.06,-285.96 -2.22,-407.61 -0.27,-196.28 18.98,-165.2 -71.93,-332.74 -41.87,-77.16 -82.38,-204.79 -154.87,-253.13 -74.11,-49.43 -160.78,-119.11 -236.09,-161.68 -39.79,9.56 -182.34,110.59 -225.47,140.15 -77.61,53.19 -74.22,85.08 -143.51,213.5 -41.94,77.72 -100.21,162.04 -100.07,252.09 0.19,118.14 -4.3,242.29 0.44,358.22l-326.73 -7.76c-2.93,-158.81 -7.37,-788.95 1.62,-916 20.14,-284.53 241.37,-356.49 455.62,-462.26 202.39,-99.9 430.39,-181.92 636.75,-279.08 84.92,-39.97 232.36,-113.44 316.04,-140.78 140.82,-46.01 274.4,91.79 372.3,64.59 90.76,-111.78 -117.81,-167.44 -194.14,-191.12z"/>
   <path class="fil0" d="M1477.31 5331.94c265.92,-75.82 339.79,380.12 107.39,461.62 -266.24,93.38 -355.06,-390.99 -107.39,-461.62zm239.81 -72.91c-29.34,-15.15 -51.17,-49.97 -83.31,-68.54 -102.46,-59.17 -240.22,-54.58 -340.89,3.38 -129.18,74.41 -185.05,234.26 -184.14,380.98 1.7,275.31 211.89,452.06 440.29,399.12 93.44,-21.66 104.4,-59.41 165.49,-114.18 23.14,115.64 1.48,237.75 -115.66,280.93 -173.99,64.13 -246.87,-87.43 -262.42,-95.22 -48.93,-9.23 -137.51,-6.64 -185.87,4.52 -55.48,255.83 496.98,396.51 700.63,134.66 105.79,-136.02 79.26,-310.3 79.67,-476.92 0.2,-83.23 17.46,-493.89 -13.89,-534.35 -43.54,-20.52 -156.24,-18.68 -196.73,10.77l-3.17 74.85z"/>
   <path class="fil0" d="M544.83 5130.79l140.29 443.32 -286.4 0.76c9.83,-56.89 48.21,-167.42 68.18,-225.03 20.83,-60.1 39.95,-178.99 77.93,-219.05zm-506.01 855.88c43.6,15.29 207.5,23.13 228.75,-21.35 16.41,-34.35 56.19,-157.19 64.92,-194.82l416.26 4.37c23.69,66.66 42.84,154.76 78.46,213.84 46.84,8.13 186.15,12.11 229.26,0.21 3.02,-49.25 -236.68,-697.57 -284.8,-835.29 -17.07,-48.82 -75.16,-249.97 -105.94,-270.44 -28.83,-13.67 -215.14,-11.3 -251.69,-1.85 -18.37,9.78 -384.51,1057.44 -375.22,1105.33z"/>
   <path class="fil0" d="M4733.68 5575.04c13.89,-66.61 115.63,-402.33 142.56,-444.85 19.34,33.3 139.21,405.77 142.33,444.69l-284.89 0.16zm-367.04 408.22c28.6,20.46 87.67,10.56 126.95,10.82 112.45,0.74 105.46,15.76 173.2,-223.43l419.15 1.07c10.17,42.04 57.15,189.6 81.61,217.23 46,7.34 172.66,14.81 212.34,-1.93 7.55,-52.75 -342.5,-1064.56 -375.65,-1109.93l-255.53 3.81c-16.08,5.62 -389.22,1073.89 -382.07,1102.36z"/>
   <path class="fil0" d="M4416.09 5023.59c34.64,-98.02 59.58,-136.45 18.84,-145.29 -24.72,-5.37 -183.89,-2.62 -212.9,1.23 -36.4,44.52 -117.63,355.23 -144.36,436.89 -23.93,73.17 -114.38,405.07 -141.42,442 -26.34,-31.58 -130.79,-408.29 -140.85,-442.66 -17.37,-59.39 -110.86,-411.95 -143.32,-431.94 -27.07,-14.85 -202.7,-11.98 -235.25,4.58 -7.73,43.78 159.67,473.71 185.49,554.52l194.74 545.76c71.59,10.35 208.88,8.95 281.49,0.76l337.54 -965.85z"/>
   <path class="fil0" d="M3250.08 5632.89c-54.59,334.8 -451.49,237.43 -395.37,-107.65 53.41,-328.4 449.22,-222.59 395.37,107.65zm205.32 41.6c109.83,-579.68 -698.63,-733.99 -811.22,-186.13 -119.4,581.09 707.77,732.1 811.22,186.13z"/>
   <path class="fil0" d="M1220.33 2067.94c20.26,20.58 90.35,57.45 119.54,37.44 18.56,-12.73 157.4,-304.64 172.72,-335.78 22.89,-46.53 31.69,-71.4 75.04,-99.53l301.57 -199.41c40.02,13.83 338.71,221.01 357.85,253.78 40.24,68.94 174.27,356.27 208.96,389.63 43.14,5.22 85.69,-17.58 114.63,-48.87 -1.28,-47.86 -205.35,-447.54 -245.94,-477.28 -54.15,-39.69 -396.21,-281.41 -434.39,-280.47 -27.62,0.68 -404.84,249.9 -439.76,284.13 -15.13,14.82 -237.41,434.97 -230.22,476.36z"/>
   <path class="fil0" d="M2589.98 5353.67c13.74,-36.44 10.97,-112.68 9.76,-154.12 -1.9,-65.31 -46.07,-55.86 -106.9,-44.3 -97.77,18.57 -117.76,77.67 -176.7,128.34 -4.07,-33.58 4.64,-76.56 -11.78,-106.03 -32.16,-23.56 -154.08,-20.34 -191.01,-3.72 -27.45,21.46 -14.55,348.04 -14.56,400.83 -0.03,97.87 -11.26,320.39 3.61,403.64 31.64,25.3 161.36,20.9 198.94,7.27 33.18,-61.64 1.99,-354.92 13.67,-451.61 7.21,-59.54 43,-112.26 92.45,-140.98 77.87,-45.23 103.19,-26.8 182.52,-39.32z"/>
  </g>
 </g>
</svg>
